<?xml version="1.0" encoding="utf-8"?>
<!-- Generator: Adobe Illustrator 27.1.0, SVG Export Plug-In . SVG Version: 6.00 Build 0)  -->
<svg version="1.1" id="Layer_1" xmlns="http://www.w3.org/2000/svg" xmlns:xlink="http://www.w3.org/1999/xlink" x="0px" y="0px"
	 viewBox="0 0 94 94" style="enable-background:new 0 0 94 94;" xml:space="preserve">
<style type="text/css">
	.st0{fill:#F4F4F4;}
</style>
<path class="st0" d="M47,12.3c-19.2,0-34.7,15.6-34.7,34.7S27.8,81.7,47,81.7S81.7,66.2,81.7,47S66.2,12.3,47,12.3z M47,71.7
	c-13.6,0-24.7-11.1-24.7-24.7S33.4,22.3,47,22.3S71.7,33.4,71.7,47S60.6,71.7,47,71.7z"/>
<path class="st0" d="M47,32.9c-7.8,0-14.1,6.3-14.1,14.1c0,7.8,6.3,14.1,14.1,14.1S61.1,54.8,61.1,47C61.1,39.2,54.8,32.9,47,32.9z
	 M52.4,43.6L46,49.7h5.4l-0.6,3H40.3l0.5-2.4l6.3-6.1h-5l0.6-3h10.1L52.4,43.6z"/>
</svg>
